<mxfile host="app.diagrams.net" modified="2023-10-05T20:23:37.952Z" agent="Mozilla/5.0 (Windows NT 10.0; Win64; x64) AppleWebKit/537.36 (KHTML, like Gecko) Chrome/117.0.0.0 Safari/537.36" etag="DUopl-kn8YNZXd5eygZV" version="22.0.3" type="github">
  <diagram id="jiNabt-vA4tPjNVKPkIv" name="Page-1">
    <mxGraphModel dx="1388" dy="1653" grid="1" gridSize="10" guides="1" tooltips="1" connect="1" arrows="1" fold="1" page="1" pageScale="1" pageWidth="850" pageHeight="1100" math="0" shadow="0">
      <root>
        <mxCell id="0" />
        <mxCell id="1" parent="0" />
        <mxCell id="y8UQqW0oQCh7q16VOE6K-1" style="edgeStyle=orthogonalEdgeStyle;rounded=0;orthogonalLoop=1;jettySize=auto;html=1;" parent="1" source="y8UQqW0oQCh7q16VOE6K-2" target="y8UQqW0oQCh7q16VOE6K-10" edge="1">
          <mxGeometry relative="1" as="geometry" />
        </mxCell>
        <mxCell id="y8UQqW0oQCh7q16VOE6K-2" value="Application Load Balancer" style="outlineConnect=0;dashed=0;verticalLabelPosition=bottom;verticalAlign=top;align=center;html=1;shape=mxgraph.aws3.application_load_balancer;fillColor=#F58534;gradientColor=none;" parent="1" vertex="1">
          <mxGeometry x="809.5" y="168" width="69" height="72" as="geometry" />
        </mxCell>
        <mxCell id="y8UQqW0oQCh7q16VOE6K-3" style="edgeStyle=orthogonalEdgeStyle;rounded=0;orthogonalLoop=1;jettySize=auto;html=1;" parent="1" source="y8UQqW0oQCh7q16VOE6K-4" target="y8UQqW0oQCh7q16VOE6K-32" edge="1">
          <mxGeometry relative="1" as="geometry" />
        </mxCell>
        <mxCell id="y8UQqW0oQCh7q16VOE6K-4" value="Mobile Client" style="outlineConnect=0;gradientColor=none;fontColor=#545B64;strokeColor=none;fillColor=#879196;dashed=0;verticalLabelPosition=bottom;verticalAlign=top;align=center;html=1;fontSize=12;fontStyle=0;aspect=fixed;shape=mxgraph.aws4.illustration_notification;pointerEvents=1;labelBackgroundColor=#ffffff;" parent="1" vertex="1">
          <mxGeometry x="350" y="163.5" width="100" height="81" as="geometry" />
        </mxCell>
        <mxCell id="y8UQqW0oQCh7q16VOE6K-6" value="AWS Cloud Dev, Qa, Prod" style="points=[[0,0],[0.25,0],[0.5,0],[0.75,0],[1,0],[1,0.25],[1,0.5],[1,0.75],[1,1],[0.75,1],[0.5,1],[0.25,1],[0,1],[0,0.75],[0,0.5],[0,0.25]];outlineConnect=0;gradientColor=none;html=1;whiteSpace=wrap;fontSize=12;fontStyle=0;container=1;pointerEvents=0;collapsible=0;recursiveResize=0;shape=mxgraph.aws4.group;grIcon=mxgraph.aws4.group_aws_cloud_alt;strokeColor=#232F3E;fillColor=none;verticalAlign=top;align=left;spacingLeft=30;fontColor=#232F3E;dashed=0;" parent="1" vertex="1">
          <mxGeometry x="500" y="-100" width="1330" height="600" as="geometry" />
        </mxCell>
        <mxCell id="y8UQqW0oQCh7q16VOE6K-8" value="QIKPROD-VPC" style="points=[[0,0],[0.25,0],[0.5,0],[0.75,0],[1,0],[1,0.25],[1,0.5],[1,0.75],[1,1],[0.75,1],[0.5,1],[0.25,1],[0,1],[0,0.75],[0,0.5],[0,0.25]];outlineConnect=0;gradientColor=none;html=1;whiteSpace=wrap;fontSize=12;fontStyle=0;container=1;pointerEvents=0;collapsible=0;recursiveResize=0;shape=mxgraph.aws4.group;grIcon=mxgraph.aws4.group_vpc;strokeColor=#248814;fillColor=none;verticalAlign=top;align=left;spacingLeft=30;fontColor=#AAB7B8;dashed=0;" parent="y8UQqW0oQCh7q16VOE6K-6" vertex="1">
          <mxGeometry x="415" y="50" width="885" height="450" as="geometry" />
        </mxCell>
        <mxCell id="y8UQqW0oQCh7q16VOE6K-22" style="edgeStyle=orthogonalEdgeStyle;rounded=0;orthogonalLoop=1;jettySize=auto;html=1;exitX=0.5;exitY=1;exitDx=0;exitDy=0;" parent="y8UQqW0oQCh7q16VOE6K-8" source="y8UQqW0oQCh7q16VOE6K-9" target="y8UQqW0oQCh7q16VOE6K-9" edge="1">
          <mxGeometry relative="1" as="geometry" />
        </mxCell>
        <mxCell id="y8UQqW0oQCh7q16VOE6K-9" value="ECSQIK" style="points=[[0,0],[0.25,0],[0.5,0],[0.75,0],[1,0],[1,0.25],[1,0.5],[1,0.75],[1,1],[0.75,1],[0.5,1],[0.25,1],[0,1],[0,0.75],[0,0.5],[0,0.25]];outlineConnect=0;gradientColor=none;html=1;whiteSpace=wrap;fontSize=12;fontStyle=0;container=1;pointerEvents=0;collapsible=0;recursiveResize=0;shape=mxgraph.aws4.group;grIcon=mxgraph.aws4.group_vpc;strokeColor=#248814;fillColor=none;verticalAlign=top;align=left;spacingLeft=30;fontColor=#AAB7B8;dashed=0;" parent="y8UQqW0oQCh7q16VOE6K-8" vertex="1">
          <mxGeometry x="105" y="20" width="755" height="410" as="geometry" />
        </mxCell>
        <mxCell id="y8UQqW0oQCh7q16VOE6K-10" value="GraphQL Service" style="outlineConnect=0;fontColor=#232F3E;gradientColor=none;fillColor=#2875E2;strokeColor=#ffffff;dashed=0;verticalLabelPosition=bottom;verticalAlign=top;align=center;html=1;fontSize=12;fontStyle=0;aspect=fixed;pointerEvents=1;shape=mxgraph.kubernetes.icon;prIcon=pod;labelBackgroundColor=#ffffff;" parent="y8UQqW0oQCh7q16VOE6K-9" vertex="1">
          <mxGeometry x="60" y="140" width="78" height="78" as="geometry" />
        </mxCell>
        <mxCell id="y8UQqW0oQCh7q16VOE6K-112" value="&#xa;&lt;span style=&quot;color: rgb(0, 0, 0); font-family: Helvetica; font-size: 11px; font-style: normal; font-variant-ligatures: normal; font-variant-caps: normal; font-weight: 400; letter-spacing: normal; orphans: 2; text-align: center; text-indent: 0px; text-transform: none; widows: 2; word-spacing: 0px; -webkit-text-stroke-width: 0px; background-color: rgb(255, 255, 255); text-decoration-thickness: initial; text-decoration-style: initial; text-decoration-color: initial; float: none; display: inline !important;&quot;&gt;HTTPS:443 TOKEN HMAC&lt;/span&gt;&#xa;&#xa;" style="edgeStyle=orthogonalEdgeStyle;rounded=0;orthogonalLoop=1;jettySize=auto;html=1;entryX=0;entryY=0.5;entryDx=0;entryDy=0;entryPerimeter=0;" parent="y8UQqW0oQCh7q16VOE6K-9" source="y8UQqW0oQCh7q16VOE6K-13" target="y8UQqW0oQCh7q16VOE6K-110" edge="1">
          <mxGeometry x="-0.186" y="-1" relative="1" as="geometry">
            <mxPoint as="offset" />
          </mxGeometry>
        </mxCell>
        <mxCell id="y8UQqW0oQCh7q16VOE6K-122" value="prodcut-db:5432" style="edgeStyle=orthogonalEdgeStyle;rounded=0;orthogonalLoop=1;jettySize=auto;html=1;" parent="y8UQqW0oQCh7q16VOE6K-9" source="y8UQqW0oQCh7q16VOE6K-13" target="y8UQqW0oQCh7q16VOE6K-120" edge="1">
          <mxGeometry relative="1" as="geometry" />
        </mxCell>
        <mxCell id="y8UQqW0oQCh7q16VOE6K-125" style="edgeStyle=orthogonalEdgeStyle;rounded=0;orthogonalLoop=1;jettySize=auto;html=1;" parent="y8UQqW0oQCh7q16VOE6K-9" source="y8UQqW0oQCh7q16VOE6K-13" target="y8UQqW0oQCh7q16VOE6K-124" edge="1">
          <mxGeometry relative="1" as="geometry" />
        </mxCell>
        <mxCell id="CmFJDcG_NYRdd-gzmuAk-2" style="edgeStyle=orthogonalEdgeStyle;rounded=0;orthogonalLoop=1;jettySize=auto;html=1;" parent="y8UQqW0oQCh7q16VOE6K-9" source="y8UQqW0oQCh7q16VOE6K-13" target="CmFJDcG_NYRdd-gzmuAk-1" edge="1">
          <mxGeometry relative="1" as="geometry">
            <Array as="points">
              <mxPoint x="419" y="60" />
            </Array>
          </mxGeometry>
        </mxCell>
        <mxCell id="y8UQqW0oQCh7q16VOE6K-13" value="product-service" style="outlineConnect=0;fontColor=#232F3E;gradientColor=none;fillColor=#2875E2;strokeColor=#ffffff;dashed=0;verticalLabelPosition=bottom;verticalAlign=top;align=center;html=1;fontSize=12;fontStyle=0;aspect=fixed;pointerEvents=1;shape=mxgraph.kubernetes.icon;prIcon=pod;labelBackgroundColor=#ffffff;" parent="y8UQqW0oQCh7q16VOE6K-9" vertex="1">
          <mxGeometry x="380" y="140" width="78" height="78" as="geometry" />
        </mxCell>
        <mxCell id="y8UQqW0oQCh7q16VOE6K-14" value="HTTPS:443 TOKEN HMAC" style="edgeStyle=orthogonalEdgeStyle;rounded=0;orthogonalLoop=1;jettySize=auto;html=1;entryX=0;entryY=0.5;entryDx=0;entryDy=0;entryPerimeter=0;" parent="y8UQqW0oQCh7q16VOE6K-9" source="y8UQqW0oQCh7q16VOE6K-10" target="y8UQqW0oQCh7q16VOE6K-13" edge="1">
          <mxGeometry x="-0.0417" y="19" relative="1" as="geometry">
            <mxPoint as="offset" />
          </mxGeometry>
        </mxCell>
        <mxCell id="y8UQqW0oQCh7q16VOE6K-17" value="1" style="ellipse;whiteSpace=wrap;html=1;aspect=fixed;" parent="y8UQqW0oQCh7q16VOE6K-9" vertex="1">
          <mxGeometry x="240" y="188" width="30" height="30" as="geometry" />
        </mxCell>
        <mxCell id="y8UQqW0oQCh7q16VOE6K-117" style="edgeStyle=orthogonalEdgeStyle;rounded=0;orthogonalLoop=1;jettySize=auto;html=1;entryX=0;entryY=0.5;entryDx=0;entryDy=0;entryPerimeter=0;" parent="y8UQqW0oQCh7q16VOE6K-9" source="y8UQqW0oQCh7q16VOE6K-110" edge="1">
          <mxGeometry relative="1" as="geometry">
            <mxPoint x="680" y="49" as="targetPoint" />
          </mxGeometry>
        </mxCell>
        <mxCell id="y8UQqW0oQCh7q16VOE6K-110" value="business-rules-engine-service" style="outlineConnect=0;fontColor=#232F3E;gradientColor=none;fillColor=#2875E2;strokeColor=#ffffff;dashed=0;verticalLabelPosition=bottom;verticalAlign=top;align=center;html=1;fontSize=12;fontStyle=0;aspect=fixed;pointerEvents=1;shape=mxgraph.kubernetes.icon;prIcon=pod;labelBackgroundColor=#ffffff;" parent="y8UQqW0oQCh7q16VOE6K-9" vertex="1">
          <mxGeometry x="500" y="10" width="78" height="78" as="geometry" />
        </mxCell>
        <mxCell id="y8UQqW0oQCh7q16VOE6K-123" value="user-db:5432" style="edgeStyle=orthogonalEdgeStyle;rounded=0;orthogonalLoop=1;jettySize=auto;html=1;" parent="y8UQqW0oQCh7q16VOE6K-9" source="y8UQqW0oQCh7q16VOE6K-111" target="y8UQqW0oQCh7q16VOE6K-121" edge="1">
          <mxGeometry relative="1" as="geometry" />
        </mxCell>
        <mxCell id="y8UQqW0oQCh7q16VOE6K-111" value="user-service" style="outlineConnect=0;fontColor=#232F3E;gradientColor=none;fillColor=#2875E2;strokeColor=#ffffff;dashed=0;verticalLabelPosition=bottom;verticalAlign=top;align=center;html=1;fontSize=12;fontStyle=0;aspect=fixed;pointerEvents=1;shape=mxgraph.kubernetes.icon;prIcon=pod;labelBackgroundColor=#ffffff;" parent="y8UQqW0oQCh7q16VOE6K-9" vertex="1">
          <mxGeometry x="500" y="300" width="78" height="78" as="geometry" />
        </mxCell>
        <mxCell id="y8UQqW0oQCh7q16VOE6K-120" value="product-db" style="image;aspect=fixed;html=1;points=[];align=center;fontSize=12;image=img/lib/azure2/databases/Azure_Database_PostgreSQL_Server.svg;" parent="y8UQqW0oQCh7q16VOE6K-9" vertex="1">
          <mxGeometry x="670.5" y="147" width="48" height="64" as="geometry" />
        </mxCell>
        <mxCell id="y8UQqW0oQCh7q16VOE6K-121" value="user-db" style="image;aspect=fixed;html=1;points=[];align=center;fontSize=12;image=img/lib/azure2/databases/Azure_Database_PostgreSQL_Server.svg;" parent="y8UQqW0oQCh7q16VOE6K-9" vertex="1">
          <mxGeometry x="670.5" y="307" width="48" height="64" as="geometry" />
        </mxCell>
        <mxCell id="y8UQqW0oQCh7q16VOE6K-124" value="payments-integration-service" style="outlineConnect=0;fontColor=#232F3E;gradientColor=none;fillColor=#2875E2;strokeColor=#ffffff;dashed=0;verticalLabelPosition=bottom;verticalAlign=top;align=center;html=1;fontSize=12;fontStyle=0;aspect=fixed;pointerEvents=1;shape=mxgraph.kubernetes.icon;prIcon=pod;labelBackgroundColor=#ffffff;" parent="y8UQqW0oQCh7q16VOE6K-9" vertex="1">
          <mxGeometry x="290" y="280" width="78" height="78" as="geometry" />
        </mxCell>
        <mxCell id="y8UQqW0oQCh7q16VOE6K-115" value="&#xa;&lt;span style=&quot;color: rgb(0, 0, 0); font-family: Helvetica; font-size: 11px; font-style: normal; font-variant-ligatures: normal; font-variant-caps: normal; font-weight: 400; letter-spacing: normal; orphans: 2; text-align: center; text-indent: 0px; text-transform: none; widows: 2; word-spacing: 0px; -webkit-text-stroke-width: 0px; background-color: rgb(255, 255, 255); text-decoration-thickness: initial; text-decoration-style: initial; text-decoration-color: initial; float: none; display: inline !important;&quot;&gt;HTTPS:443 TOKEN HMAC&lt;/span&gt;&#xa;&#xa;" style="edgeStyle=orthogonalEdgeStyle;rounded=0;orthogonalLoop=1;jettySize=auto;html=1;movable=1;resizable=1;rotatable=1;deletable=1;editable=1;locked=0;connectable=1;" parent="y8UQqW0oQCh7q16VOE6K-9" source="y8UQqW0oQCh7q16VOE6K-13" target="y8UQqW0oQCh7q16VOE6K-111" edge="1">
          <mxGeometry x="0.061" relative="1" as="geometry">
            <Array as="points">
              <mxPoint x="480" y="179" />
              <mxPoint x="480" y="350" />
            </Array>
            <mxPoint as="offset" />
          </mxGeometry>
        </mxCell>
        <mxCell id="CmFJDcG_NYRdd-gzmuAk-4" value="account.db:5432" style="edgeStyle=orthogonalEdgeStyle;rounded=0;orthogonalLoop=1;jettySize=auto;html=1;" parent="y8UQqW0oQCh7q16VOE6K-9" source="CmFJDcG_NYRdd-gzmuAk-1" target="CmFJDcG_NYRdd-gzmuAk-3" edge="1">
          <mxGeometry relative="1" as="geometry" />
        </mxCell>
        <mxCell id="CmFJDcG_NYRdd-gzmuAk-1" value="account-service" style="outlineConnect=0;fontColor=#232F3E;gradientColor=none;fillColor=#2875E2;strokeColor=#ffffff;dashed=0;verticalLabelPosition=bottom;verticalAlign=top;align=center;html=1;fontSize=12;fontStyle=0;aspect=fixed;pointerEvents=1;shape=mxgraph.kubernetes.icon;prIcon=pod;labelBackgroundColor=#ffffff;" parent="y8UQqW0oQCh7q16VOE6K-9" vertex="1">
          <mxGeometry x="255" y="10" width="78" height="78" as="geometry" />
        </mxCell>
        <mxCell id="CmFJDcG_NYRdd-gzmuAk-3" value="account-db" style="image;aspect=fixed;html=1;points=[];align=center;fontSize=12;image=img/lib/azure2/databases/Azure_Database_PostgreSQL_Server.svg;" parent="y8UQqW0oQCh7q16VOE6K-9" vertex="1">
          <mxGeometry x="90" y="17" width="48" height="64" as="geometry" />
        </mxCell>
        <mxCell id="CmFJDcG_NYRdd-gzmuAk-5" value="2" style="ellipse;whiteSpace=wrap;html=1;aspect=fixed;" parent="y8UQqW0oQCh7q16VOE6K-9" vertex="1">
          <mxGeometry x="370" y="70" width="30" height="30" as="geometry" />
        </mxCell>
        <mxCell id="CmFJDcG_NYRdd-gzmuAk-6" value="3" style="ellipse;whiteSpace=wrap;html=1;aspect=fixed;" parent="y8UQqW0oQCh7q16VOE6K-9" vertex="1">
          <mxGeometry x="340" y="230" width="30" height="30" as="geometry" />
        </mxCell>
        <mxCell id="CmFJDcG_NYRdd-gzmuAk-9" value="5" style="ellipse;whiteSpace=wrap;html=1;aspect=fixed;" parent="y8UQqW0oQCh7q16VOE6K-9" vertex="1">
          <mxGeometry x="450" y="51" width="30" height="30" as="geometry" />
        </mxCell>
        <mxCell id="CmFJDcG_NYRdd-gzmuAk-10" value="4" style="ellipse;whiteSpace=wrap;html=1;aspect=fixed;" parent="y8UQqW0oQCh7q16VOE6K-9" vertex="1">
          <mxGeometry x="440" y="304" width="30" height="30" as="geometry" />
        </mxCell>
        <mxCell id="7JrV0-snnqU8p3SBfwdE-1" value="6" style="ellipse;whiteSpace=wrap;html=1;aspect=fixed;" parent="y8UQqW0oQCh7q16VOE6K-9" vertex="1">
          <mxGeometry x="560" y="188" width="30" height="30" as="geometry" />
        </mxCell>
        <mxCell id="viWdsKXB66oeUTo_0rle-2" value="" style="image;html=1;image=img/lib/clip_art/networking/Firewall_02_128x128.png" parent="y8UQqW0oQCh7q16VOE6K-9" vertex="1">
          <mxGeometry x="675" y="10" width="80" height="80" as="geometry" />
        </mxCell>
        <mxCell id="y8UQqW0oQCh7q16VOE6K-29" value="" style="image;html=1;image=img/lib/clip_art/networking/Firewall_02_128x128.png" parent="y8UQqW0oQCh7q16VOE6K-6" vertex="1">
          <mxGeometry x="200" y="264" width="80" height="80" as="geometry" />
        </mxCell>
        <mxCell id="y8UQqW0oQCh7q16VOE6K-30" style="edgeStyle=orthogonalEdgeStyle;rounded=0;orthogonalLoop=1;jettySize=auto;html=1;entryX=0;entryY=0.5;entryDx=0;entryDy=0;" parent="y8UQqW0oQCh7q16VOE6K-6" source="y8UQqW0oQCh7q16VOE6K-31" target="y8UQqW0oQCh7q16VOE6K-29" edge="1">
          <mxGeometry relative="1" as="geometry" />
        </mxCell>
        <mxCell id="y8UQqW0oQCh7q16VOE6K-31" value="cloudfront" style="outlineConnect=0;dashed=0;verticalLabelPosition=bottom;verticalAlign=top;align=center;html=1;shape=mxgraph.aws3.cloudfront;fillColor=#F58536;gradientColor=none;" parent="y8UQqW0oQCh7q16VOE6K-6" vertex="1">
          <mxGeometry x="100" y="257.5" width="76.5" height="93" as="geometry" />
        </mxCell>
        <mxCell id="y8UQqW0oQCh7q16VOE6K-32" value="" style="shape=image;verticalLabelPosition=bottom;labelBackgroundColor=default;verticalAlign=top;aspect=fixed;imageAspect=0;image=data:image/png,iVBORw0KGgoAAAANSUhEUgAAAKkAAACkCAIAAABjKZmmAAAAAXNSR0IArs4c6QAAAARnQU1BAACxjwv8YQUAAAAJcEhZcwAADsMAAA7DAcdvqGQAAA/QSURBVHhe7Z3/yyVVHcf7O0xSwy8rfYNAsTYEQXFbFG11aaHFcAU3ElpYwyCelIqCXRZKiJW0fshWSEJUInJ/WUxJhWXBwOgh/EELQ+gXdx8Qf9te7nv8cPicmXPnzp2Ze+bOefPmYe7MmXPOnNf5OjP3Pp+6WDRXFfbzVWE/XxX281VhP18V9vNVYT9fFfbzVWE/XxX289WM2J997U3n6sBctZnsL5zfOfOXvz1x4ulD9zy8/9bDX7rstoT33HiQYATmFE6sopiBNor9e/9+H4QLYafN6ccfPbn91ttVpJurTWBPY33x2dMrIo9Nf3Dqyec2uCeYNnvA0NB3X3e3w9ajiXzryHF6lCrJDdJU2XejftNn7t59xb2YDXdooUluw/qASbJnUkaH7Ng4f/nTX7/5ygO3X/3Avl1HD3zuh/d94ce15hABCEZgTnGROFPVSLrKxPQ1Mfa0vCP3P+aQhL7h8jv3XnN4//WPOMYtzYnUAyJx0YYmA5vRAUyJPSvyRCd/y1UHacGOZWcTFRG6JMxkYwNuD0yGPTN5B8AMpESvvoqJNlEDWAVUmZumpsGembYrd5lZW+fuvb1JgoRc0jIZq7I4QU2AfS145mWM6w7SoCa52sngdPHnzr4WPCu0gTr5tEm0dnE4UfxZs68FzwD8rc//yFEZzSRdOwOYIv582TOTcuWLKXcHYy2uxT+5qV+m7FlBuZLFd1z7kGOwRpMZlz08rYVfjuwvnN+J1/GZtPjQcesn2xO67ZMj+0P3POzKNEPwcoyfzFeXkb2yYx/fw2Fq7Uo8K8czfy6hupi8lRf7uLdnSb2W5Vx7kz237tcd39B5PgLOi/3xR0+GhYjvuu57rqwzNJl02a613gjK582wsdlvv/U2XSJF0OZNut1X3OtKOVs33fRt8pH7H1v74+Ax2FPN4c3VxrP3tDPv7UOTVZf5Nt5z48E1Tg6GZU/VTj9uT/jWz37blW/mJsPuElqaGsCcoCqyETUIexr6qSefW/hqTdprvHHbzWRYOaf/D51+E8Q8/ish/bOnE1u2b4+d7YI+7UR93X/9I3dc+1D6zTBay5jvhvfJno6rTVtnQUz3uPeaw/t2Ha19+s7+yTX6pUwloD9wxWIebQbQD3s6q3h5FprKTlNmLbTZUJcyVbz2iTAeB38P7OmmEs2dCp7VM5jc3PRKyAj4V2WfGN2h3uPLkxtsBr7aDmBo/Cuxf+LE0y67MldSqC9lhsJ4BkCjGnTq15197Us1+ParH3AXVtzS8VPB/bceHm7h15F9LXgWsiO8NZv2zw/97t3t90+feoMNd2gSjjt/JtFVofetLuxrwbNyzWEOD/Iqlxcvfrjz0bkz209tvXD09sddsGxNGcb3ggbq+ZdmzwTE5QzncysmZB/qf+99QGfw+JFnXfgMTd/pineg90GWY3+27jW6rO7BNbEPRWfwzLGXcu4MmDO5Qh7ihv8S7Jl0xMu53G6+tmFvyrYziHv+IZr+Euwn8RrdUuxDqTPY2v9rF+G6HL8H3PvLP23Zx8M8M9IMb9B2Zm+iM3j1xTfpDL7z1WMu8pHt7vf1PuFvxT7u7clWni9WrM4+1D/PvrPGzsC9ELDnxoP9Nv1W7OPnNNm+Rtcve5M6g5ErQTzhx7Do627PYvbUNZf87oxfoxuIvfT8yZdJgs7gqa0XwkSHc+17H/TBvbzrt5h9fCcn59foBmXPspCmr+1x+oD4Lq959W9/LmAfN/rMb9cPx57VIPHzVx9JKEx3INPMEvhXvNu/gL17UscUL8O5fWiaI2Nzlfv+JPDW6NE47GVqQNOLoODvfMd3AXs3vZ/Ku7OAYWr24c5H1WV0laZ4ugNInGGEY7KXqQG1b3rBqFvrT7FnQuGSyXmkrzWTsnNntqvraSfxtidArPJZ6zO/qw5/ovHZy/HtXtyt80+xd7O8nKf3aUORZfq7242LY8cbg5ZZfYzctC72mAV2/JpXh5u+Kfauw9+A1+4YsBm51XXHvDlKFUnwDrVG9pilf4yfyVmVuXZqZM8MwkWd+SxvKdv9WvFmXFh2crBe9rj2zs9S875G9u7nbm7K+0vwS5mGTnOn0a+yIlg7exw/71mq529k775HN/W38DRlW5F3qBzY43j13/7t3kb27pX7nL8H3/TATbwZ4BOzvM7KhH38pB9wVRYXqZF9GB3O/D4urZlu3D6mp+i9KBP2OP7lh5ZNv559PNFz6WVlMCjbQ7TvJuXDHrt7Pi1H/Xr27r28zFf2xn5M2cowB8dNv82T/nr27o5eYe/EgOLysHa7Ub/Nj3zWs3ePcAr7UB/ufLSVzWt9Zvewp023X9gvJ8DbpDIrx7d6qhw3q7BfQnT1WQ3zzu4u78JX+gv7VoI6qbh0czOYQmoLh/x69u6G7pzZvzr6K5qd7R7vLny0U8++rPEY158/+XLOPXxsx/7I/Y9VF9OgVuxZP7hksnK/7HWLsOk+cc52q/yFU/169hfO74SxYJdMVu6LPYN6nnP4lt6362iIrCN7FMaCc/4NldXZM6gTiYt2cu6NPWeGEeX80k5n9gzqp0+9Ma1BPeF++nzkvoeV4VduzR3YM6g/c+ylKQ7qCbu5Xnf27ou3OU/3lmL/7vb7kx7UE+5njYfib+TsX/fvKDW5JftzZ7Y3YFBPuJ97O5L73wbZfjEjzZ5BnancxgzqCfdzT1dyd/ey7fab2DOoP3/y5Q0b1Jvc27McKe7285ztbwVfk5PCV7hmYvcMlz67Kotmpdgjt9LL9uYuXTodOxmexEOXIdzbuxum+Gd2yg/lZug+39kK5V7Wzvy5zjztZvhtOny0mH3c9HO+xzdD9/yOtpNr+vn/AsN8PMh3M0LFX8S/+coDLhPFa3H8exwtGz1qxR65CT/ee81hl4/ikc3g66C0HOmltuyZN7qv43+cUq53eedgCj/+Cn4/38GO5W7zYdIu+NfiWvALH944LcEexf/gtOAf3/t2HY3BL3xiG2s59hfO77gHPLjgH9NMs1z5Y6D0/FtLtaod+Av+EZz4jbU2d/FiLc0eMaGI8eNyz2cgs4h372WYWc0vNb8L1YU9asKfyX9M2hjTm95y1cF4dJe7dfWmjuxRE/4bLr/zrox/oGW9pmRuuvSvoNloGiXp2zlKGHfDznnryPFVwKPu7BH446mfzMg06AxgctMLusP4HhymTVNWclP7dqbJjfQb6mlR9eKFn5khoPdnvrQJTXlGe3WYecyKAxkxpBtxe6/e3E2rspfi2z6h6eVYmaz4a02cznzHlSD4B51eEDnVl4RokaS+7CVwOhfeI/Vu8/km9cMeJfp/M5WAEqQnaAmMYBr5ONFFZebQirWqyQwrcbqqx+nOjBMJo0qzuilVmla/1KXe2EvksnYCGJvWQNdNw6U2OFNq7Qc/TEjK2gFY0WRjYQZ0CaFbNnFGyXQ74SitfCDkpp7ZI0ajJ0483bIG9GhaZC9zCyLpq5eOfeieh8PlOGV19rU3Qw8K26l/9hJXRbV1L3305USjofF1u8XE+NLjjCw21EFblU4eGoq9iQum++qlG6AmHX/0pNoN0SbipLtmNIHlwqkAAQjGKJPo4ZVut0vgLC4/bOv5aHD2Jq6fsYDqv1QhUu6MjnQhcfGll5dmoNIZQDecUmh4Xjii43BN1f4SCEN16WUVPpzGYx+KUY2G++KzpynKWlNqBLBCT4iQw40siV7ahmoyQIa5Fn0cc8BeUeth37so+h5rAFG1f+ttutoQ9hJNsM0okDA9fKKtb5g2ir1Eb0yrhWLLnkCLaepNmyFmk7SB7J1sSHZm53yaeK02n31Rkwr7+aqwn68K+/mqsJ+vCvv5qrCfrwr7+aqwn68K+/mqsF+/fvurP3zxsttO/+mv1eextCr7X/7sN2vJdwed/2CHrB7Y893qczYq7AdXYe/UJ/vvP/jTB7/5A10JZvsff/8XO/WRDZ3Cxt6v3PfH3//Zgv3nnf/qEBt8tP3QYqciJCod4lz+2imvv3KOjz955BdsW1qYjCmAybH/2vXfIIydYskhLkepYDbYE2aME8m8QrJN0liH7BrD8FjlQ+Cw5tnHkH1TQkOoZ/Zs6/qFBHNhfNTl6UrCYFyqFQFFT0Fz5bYdFg3BOERypGXR2lGS07bqRJicKWZv8YQVSNtGUTEjq0xio4TCSFSbFYwwqjTab4EXske1CQ2h/tlbXrk2rG1arZWLC6ZGw0eVXVjW2q+iMRjIqoW2rZRNYXKmmL1lDxkJy4/2xwpRcVaYumVGGy4SS0Kyj469qWl/X+qfvfWc4aXG7C2YXaGicubEuAisWihaArCTCF0MSs4Us68lwV+2tdNEQsq2WflxkdilcVTBaLuW86YUwwtsSmgIZceekNpvitkbch3SKYqWPRagR/Zqx8pDmB8XSXhp/CUDBGCPRp+mFMMImxIaQmtjb3276/NVTKFqi4ACokkRvyVBcuzUtsbsbuzjUVaZ12wAOfZY+5HIVR8uiUQJQJxshykSv2XGIkwkNITWxp6/bFMEYTCVnZU7F6+/cRGwkxOxwiAi4aNSF79u7EnIsoeoi+Kno+SNHFp+2M+28qC6q0TZo5zoAoWTXLGtq1O5KU67wERCQ2g97DmkC8aUiJ3CBQubbOXItisCQrKTeOxcklBhsRMMbOt0EyE5alkKs4fCjzqdwFiVQFx1OjlhQ/nhLDKsC8fWZMOr4KgySZ45XTvJG/uVYniBTQkNoVXZd5BKyphNWq4CTUuF/Uoq7JdTYZ+J1sC+KBMV9vNVYd9FtUuPyWkC7LU2w6x/ql2fLBphUH2u0+uvnGM8rj70qsJ+JBl71tw2Q2zDnjV0YZ/QZNgzneav3Txx7AUDA1vdAyG1R1YA3Ui2+0KXTq1uACsqcLq7OkhpcUgrFKpUyJ7YNNuf3MplMux1I4wN8QvZhyTCbXjUAqZysN+i0ikgVBhVLz5SCR68dB9eaQkw2eCjpULeCBZ2SBPSlNizIQDsDNkbJKTA4heyR2xrP38Jz1nEyUdts6G6BfWPQ39SJ6gQSkthJGNPEuy3U6alKbFnW4XOX2Ovo87qrh17Y8xfTqQG6KPVCRdeadFJKC1lQNIhIuQv29XeqWli7JEIWR+uozY2h6plSWPlL6frqYn9JcCy7AlM7cHkoTowKU2PvUiEbU4AdDSUY6nqwonaSUdt8ajTpvXbNhJg6/Nj9lQji7M6MClNjz0SJCz2ImEBQBKyhJz2I6hjQ0WNUdvVRzFWF0IM7FfIBHu22c+2cjItTZI9ewATljgbUGQP5pDY85emr52qAWrldpYqhwZ7SdM3nUIlUGeeZo/UwYSVbBKaAPuigVTYz1eF/XxV2M9Xhf18VdjPV4X9fFXYz1eF/XxV2M9Xhf18VdjPV4X9fFXYz1eF/Vx18eL/AQkeeILv8CDsAAAAAElFTkSuQmCC;" parent="y8UQqW0oQCh7q16VOE6K-6" vertex="1">
          <mxGeometry x="20" y="274" width="61.83" height="60" as="geometry" />
        </mxCell>
        <mxCell id="y8UQqW0oQCh7q16VOE6K-33" style="edgeStyle=orthogonalEdgeStyle;rounded=0;orthogonalLoop=1;jettySize=auto;html=1;entryX=0;entryY=0.5;entryDx=0;entryDy=0;entryPerimeter=0;" parent="y8UQqW0oQCh7q16VOE6K-6" source="y8UQqW0oQCh7q16VOE6K-32" target="y8UQqW0oQCh7q16VOE6K-31" edge="1">
          <mxGeometry relative="1" as="geometry" />
        </mxCell>
        <mxCell id="y8UQqW0oQCh7q16VOE6K-37" style="edgeStyle=orthogonalEdgeStyle;rounded=0;orthogonalLoop=1;jettySize=auto;html=1;entryX=0;entryY=0.5;entryDx=0;entryDy=0;entryPerimeter=0;" parent="1" source="y8UQqW0oQCh7q16VOE6K-29" target="y8UQqW0oQCh7q16VOE6K-2" edge="1">
          <mxGeometry relative="1" as="geometry" />
        </mxCell>
        <mxCell id="y8UQqW0oQCh7q16VOE6K-70" value="Figura 1" style="text;html=1;strokeColor=none;fillColor=none;align=center;verticalAlign=middle;whiteSpace=wrap;rounded=0;" parent="1" vertex="1">
          <mxGeometry x="1160" y="540" width="60" height="20" as="geometry" />
        </mxCell>
        <mxCell id="y8UQqW0oQCh7q16VOE6K-118" value="" style="shape=image;verticalLabelPosition=bottom;labelBackgroundColor=default;verticalAlign=top;aspect=fixed;imageAspect=0;image=https://upload.wikimedia.org/wikipedia/commons/thumb/d/dd/LOGO_JCE.svg/1200px-LOGO_JCE.svg.png;" parent="1" vertex="1">
          <mxGeometry x="1675" y="-240" width="118.7" height="120" as="geometry" />
        </mxCell>
        <mxCell id="y8UQqW0oQCh7q16VOE6K-119" style="edgeStyle=orthogonalEdgeStyle;rounded=0;orthogonalLoop=1;jettySize=auto;html=1;" parent="1" target="y8UQqW0oQCh7q16VOE6K-118" edge="1">
          <mxGeometry relative="1" as="geometry">
            <mxPoint x="1734.5" y="-17" as="sourcePoint" />
          </mxGeometry>
        </mxCell>
      </root>
    </mxGraphModel>
  </diagram>
</mxfile>
